<svg width="1075" height="355" viewBox="0 0 1075 355" fill="none" xmlns="http://www.w3.org/2000/svg">
<path d="M25.187 232.128C24.7177 232.128 24.291 231.893 23.907 231.424C23.523 230.912 23.203 230.4 22.947 229.888L13.091 210.688H4.963V230.336C4.963 230.891 4.72833 231.317 4.259 231.616C3.83233 231.872 3.363 232 2.851 232C2.29633 232 1.80567 231.872 1.379 231.616C0.952334 231.317 0.739 230.891 0.739 230.336V186.816C0.739 186.389 0.888334 186.027 1.187 185.728C1.48567 185.429 1.86967 185.259 2.339 185.216H13.667C16.1843 185.216 18.4883 185.6 20.579 186.368C22.6697 187.136 24.3337 188.437 25.571 190.272C26.851 192.107 27.491 194.624 27.491 197.824C27.491 200.469 27.043 202.645 26.147 204.352C25.2937 206.059 24.099 207.381 22.563 208.32C21.0697 209.216 19.3843 209.835 17.507 210.176L27.363 229.12C27.491 229.248 27.555 229.397 27.555 229.568C27.5977 229.696 27.619 229.824 27.619 229.952C27.619 230.293 27.491 230.635 27.235 230.976C27.0217 231.317 26.723 231.595 26.339 231.808C25.955 232.021 25.571 232.128 25.187 232.128ZM4.963 207.04H13.667C16.5257 207.04 18.8297 206.357 20.579 204.992C22.371 203.584 23.267 201.28 23.267 198.08C23.267 194.837 22.371 192.533 20.579 191.168C18.8297 189.803 16.5257 189.12 13.667 189.12H4.963V207.04ZM45.64 232.448C42.952 232.448 40.5627 231.936 38.472 230.912C36.424 229.888 34.8027 228.48 33.608 226.688C32.456 224.853 31.88 222.72 31.88 220.288V213.184C31.88 211.051 32.4347 209.088 33.544 207.296C34.6533 205.461 36.1253 204.011 37.96 202.944C39.8373 201.877 41.8853 201.344 44.104 201.344C46.2373 201.344 48.2 201.856 49.992 202.88C51.8267 203.861 53.2987 205.227 54.408 206.976C55.5173 208.725 56.072 210.752 56.072 213.056C56.072 214.677 55.7947 215.851 55.24 216.576C54.6853 217.301 53.9813 217.749 53.128 217.92C52.3173 218.048 51.4427 218.112 50.504 218.112H36.04V220.48C36.04 223.04 36.9573 225.067 38.792 226.56C40.6267 228.053 42.952 228.8 45.768 228.8C47.4747 228.8 48.7973 228.587 49.736 228.16C50.6747 227.733 51.4 227.307 51.912 226.88C52.4667 226.453 52.9787 226.24 53.448 226.24C53.7893 226.24 54.088 226.368 54.344 226.624C54.6427 226.837 54.856 227.093 54.984 227.392C55.1547 227.691 55.24 227.968 55.24 228.224C55.24 228.693 54.856 229.269 54.088 229.952C53.32 230.635 52.2107 231.232 50.76 231.744C49.3093 232.213 47.6027 232.448 45.64 232.448ZM36.04 215.04H48.84C50.12 215.04 50.9733 214.912 51.4 214.656C51.8267 214.357 52.04 213.76 52.04 212.864C52.04 211.499 51.6987 210.219 51.016 209.024C50.3333 207.787 49.3947 206.784 48.2 206.016C47.0053 205.205 45.6187 204.8 44.04 204.8C42.5893 204.8 41.2453 205.163 40.008 205.888C38.8133 206.613 37.8533 207.552 37.128 208.704C36.4027 209.856 36.04 211.157 36.04 212.608V215.04ZM70.5365 232.448C68.5312 232.448 66.7605 232.192 65.2245 231.68C63.7312 231.168 62.5578 230.571 61.7045 229.888C60.8938 229.163 60.4885 228.48 60.4885 227.84C60.4885 227.541 60.5525 227.264 60.6805 227.008C60.8085 226.709 60.9792 226.453 61.1925 226.24C61.4485 226.027 61.7045 225.92 61.9605 225.92C62.4298 225.92 62.9418 226.176 63.4965 226.688C64.0938 227.157 64.9045 227.648 65.9285 228.16C66.9952 228.672 68.4885 228.928 70.4085 228.928C72.8405 228.928 74.5472 228.48 75.5285 227.584C76.5098 226.645 77.0005 225.579 77.0005 224.384C77.0005 222.976 76.6165 221.888 75.8485 221.12C75.1232 220.309 74.1418 219.691 72.9045 219.264C71.7098 218.837 70.4298 218.432 69.0645 218.048C67.7418 217.664 66.4618 217.195 65.2245 216.64C64.0298 216.085 63.0485 215.296 62.2805 214.272C61.5552 213.205 61.1925 211.797 61.1925 210.048C61.1925 208.683 61.5338 207.339 62.2165 206.016C62.8992 204.693 63.9658 203.584 65.4165 202.688C66.9098 201.792 68.8725 201.344 71.3045 201.344C72.7125 201.344 74.0778 201.493 75.4005 201.792C76.7232 202.091 77.7898 202.496 78.6005 203.008C79.4538 203.477 79.8805 203.989 79.8805 204.544C79.8805 204.715 79.7952 204.992 79.6245 205.376C79.4965 205.717 79.3045 206.016 79.0485 206.272C78.7925 206.528 78.4938 206.656 78.1525 206.656C77.8112 206.656 77.3418 206.507 76.7445 206.208C76.1898 205.909 75.4645 205.611 74.5685 205.312C73.6725 205.013 72.6058 204.864 71.3685 204.864C69.8325 204.864 68.5952 205.141 67.6565 205.696C66.7178 206.251 66.0352 206.912 65.6085 207.68C65.1818 208.448 64.9685 209.195 64.9685 209.92C64.9685 211.115 65.3525 212.032 66.1205 212.672C66.8885 213.312 67.8698 213.845 69.0645 214.272C70.3018 214.656 71.5818 215.04 72.9045 215.424C74.2698 215.765 75.5498 216.256 76.7445 216.896C77.9818 217.536 78.9632 218.432 79.6885 219.584C80.4565 220.736 80.8405 222.272 80.8405 224.192C80.8405 226.709 79.9445 228.715 78.1525 230.208C76.3605 231.701 73.8218 232.448 70.5365 232.448ZM97.0785 232C93.7932 232 91.2758 231.253 89.5265 229.76C87.7772 228.267 86.9025 225.877 86.9025 222.592V188.928C86.9025 188.416 87.1158 188.032 87.5425 187.776C88.0118 187.477 88.4812 187.328 88.9505 187.328C89.5052 187.328 89.9958 187.477 90.4225 187.776C90.8492 188.032 91.0625 188.416 91.0625 188.928V201.728H99.3825C99.8092 201.728 100.151 201.899 100.407 202.24C100.663 202.581 100.791 202.987 100.791 203.456C100.791 203.925 100.663 204.331 100.407 204.672C100.151 205.013 99.8092 205.184 99.3825 205.184H91.0625V222.592C91.0625 224.683 91.5105 226.155 92.4065 227.008C93.3025 227.819 94.8598 228.224 97.0785 228.224H98.8705C99.4678 228.224 99.9158 228.416 100.215 228.8C100.556 229.141 100.727 229.568 100.727 230.08C100.727 230.592 100.556 231.04 100.215 231.424C99.9158 231.808 99.4678 232 98.8705 232H97.0785ZM112.626 232.448C110.194 232.448 108.124 231.765 106.418 230.4C104.754 228.992 103.922 226.859 103.922 224C103.922 221.653 104.54 219.861 105.778 218.624C107.058 217.344 108.807 216.469 111.026 216C113.287 215.488 115.89 215.232 118.833 215.232H122.098V213.76C122.098 212.352 121.842 210.987 121.33 209.664C120.86 208.299 120.071 207.189 118.962 206.336C117.895 205.44 116.423 204.992 114.546 204.992C113.138 204.992 111.986 205.141 111.09 205.44C110.194 205.739 109.49 206.059 108.978 206.4C108.466 206.699 108.039 206.848 107.698 206.848C107.186 206.848 106.759 206.592 106.418 206.08C106.119 205.568 105.97 205.099 105.97 204.672C105.97 204.075 106.418 203.541 107.314 203.072C108.21 202.56 109.319 202.155 110.642 201.856C112.007 201.515 113.351 201.344 114.674 201.344C117.532 201.344 119.794 201.941 121.458 203.136C123.164 204.288 124.38 205.803 125.106 207.68C125.874 209.557 126.258 211.563 126.258 213.696V230.336C126.258 230.805 126.066 231.211 125.682 231.552C125.34 231.851 124.85 232 124.21 232C123.698 232 123.228 231.851 122.802 231.552C122.418 231.211 122.226 230.805 122.226 230.336V227.52C121.159 228.8 119.836 229.952 118.258 230.976C116.679 231.957 114.802 232.448 112.626 232.448ZM113.65 228.928C115.058 228.928 116.402 228.565 117.682 227.84C118.962 227.115 120.007 226.24 120.818 225.216C121.671 224.149 122.098 223.147 122.098 222.208V218.112H119.41C117.49 218.112 115.655 218.24 113.906 218.496C112.199 218.709 110.791 219.2 109.682 219.968C108.615 220.736 108.082 221.952 108.082 223.616C108.082 225.451 108.615 226.795 109.682 227.648C110.791 228.501 112.114 228.928 113.65 228.928ZM145.936 232.448C143.675 232.448 141.605 231.893 139.728 230.784C137.893 229.675 136.421 228.203 135.312 226.368C134.245 224.491 133.712 222.507 133.712 220.416V203.392C133.712 202.965 133.925 202.581 134.352 202.24C134.779 201.899 135.269 201.728 135.824 201.728C136.379 201.728 136.848 201.899 137.232 202.24C137.659 202.581 137.872 202.965 137.872 203.392V220.416C137.872 221.824 138.235 223.147 138.96 224.384C139.685 225.621 140.645 226.645 141.84 227.456C143.035 228.224 144.379 228.608 145.872 228.608C147.408 228.608 148.773 228.224 149.968 227.456C151.163 226.688 152.101 225.685 152.784 224.448C153.509 223.168 153.872 221.824 153.872 220.416V203.328C153.872 202.859 154.085 202.475 154.512 202.176C154.939 201.877 155.429 201.728 155.984 201.728C156.624 201.728 157.115 201.877 157.456 202.176C157.84 202.475 158.032 202.859 158.032 203.328V220.416C158.032 222.592 157.477 224.597 156.368 226.432C155.301 228.224 153.829 229.675 151.952 230.784C150.117 231.893 148.112 232.448 145.936 232.448ZM167.766 232C167.211 232 166.721 231.829 166.294 231.488C165.91 231.147 165.718 230.763 165.718 230.336V203.328C165.718 202.816 165.91 202.432 166.294 202.176C166.721 201.877 167.211 201.728 167.766 201.728C168.321 201.728 168.79 201.877 169.174 202.176C169.558 202.432 169.75 202.816 169.75 203.328V206.464C170.219 205.568 170.859 204.736 171.67 203.968C172.481 203.2 173.441 202.581 174.55 202.112C175.659 201.6 176.918 201.344 178.326 201.344H180.566C181.035 201.344 181.419 201.536 181.718 201.92C182.059 202.304 182.23 202.752 182.23 203.264C182.23 203.819 182.059 204.288 181.718 204.672C181.419 205.013 181.035 205.184 180.566 205.184H178.326C176.918 205.184 175.553 205.568 174.23 206.336C172.95 207.104 171.905 208.171 171.094 209.536C170.283 210.901 169.878 212.565 169.878 214.528V230.336C169.878 230.763 169.665 231.147 169.238 231.488C168.854 231.829 168.363 232 167.766 232ZM192.126 232.448C189.694 232.448 187.624 231.765 185.918 230.4C184.254 228.992 183.422 226.859 183.422 224C183.422 221.653 184.04 219.861 185.278 218.624C186.558 217.344 188.307 216.469 190.526 216C192.787 215.488 195.39 215.232 198.333 215.232H201.598V213.76C201.598 212.352 201.342 210.987 200.83 209.664C200.36 208.299 199.571 207.189 198.462 206.336C197.395 205.44 195.923 204.992 194.046 204.992C192.638 204.992 191.486 205.141 190.59 205.44C189.694 205.739 188.99 206.059 188.478 206.4C187.966 206.699 187.539 206.848 187.198 206.848C186.686 206.848 186.259 206.592 185.918 206.08C185.619 205.568 185.47 205.099 185.47 204.672C185.47 204.075 185.918 203.541 186.814 203.072C187.71 202.56 188.819 202.155 190.142 201.856C191.507 201.515 192.851 201.344 194.174 201.344C197.032 201.344 199.294 201.941 200.958 203.136C202.664 204.288 203.88 205.803 204.606 207.68C205.374 209.557 205.758 211.563 205.758 213.696V230.336C205.758 230.805 205.566 231.211 205.182 231.552C204.84 231.851 204.35 232 203.71 232C203.198 232 202.728 231.851 202.302 231.552C201.918 231.211 201.726 230.805 201.726 230.336V227.52C200.659 228.8 199.336 229.952 197.758 230.976C196.179 231.957 194.302 232.448 192.126 232.448ZM193.15 228.928C194.558 228.928 195.902 228.565 197.182 227.84C198.462 227.115 199.507 226.24 200.318 225.216C201.171 224.149 201.598 223.147 201.598 222.208V218.112H198.91C196.99 218.112 195.155 218.24 193.406 218.496C191.699 218.709 190.291 219.2 189.182 219.968C188.115 220.736 187.582 221.952 187.582 223.616C187.582 225.451 188.115 226.795 189.182 227.648C190.291 228.501 191.614 228.928 193.15 228.928ZM215.516 232C214.961 232 214.471 231.829 214.044 231.488C213.66 231.147 213.468 230.763 213.468 230.336V203.328C213.468 202.816 213.66 202.432 214.044 202.176C214.471 201.877 214.961 201.728 215.516 201.728C216.071 201.728 216.54 201.877 216.924 202.176C217.308 202.432 217.5 202.816 217.5 203.328V206.208C218.183 204.971 219.249 203.861 220.7 202.88C222.151 201.856 223.943 201.344 226.076 201.344C228.124 201.344 230.001 201.899 231.708 203.008C233.457 204.075 234.844 205.525 235.868 207.36C236.892 209.152 237.404 211.157 237.404 213.376V230.336C237.404 230.891 237.191 231.317 236.764 231.616C236.337 231.872 235.847 232 235.292 232C234.823 232 234.353 231.872 233.884 231.616C233.457 231.317 233.244 230.891 233.244 230.336V213.376C233.244 211.968 232.881 210.645 232.156 209.408C231.431 208.171 230.471 207.168 229.276 206.4C228.081 205.589 226.759 205.184 225.308 205.184C224.028 205.184 222.791 205.525 221.596 206.208C220.444 206.848 219.484 207.765 218.716 208.96C217.991 210.155 217.628 211.627 217.628 213.376V230.336C217.628 230.763 217.415 231.147 216.988 231.488C216.604 231.829 216.113 232 215.516 232ZM255.141 232C251.856 232 249.338 231.253 247.589 229.76C245.84 228.267 244.965 225.877 244.965 222.592V188.928C244.965 188.416 245.178 188.032 245.605 187.776C246.074 187.477 246.544 187.328 247.013 187.328C247.568 187.328 248.058 187.477 248.485 187.776C248.912 188.032 249.125 188.416 249.125 188.928V201.728H257.445C257.872 201.728 258.213 201.899 258.469 202.24C258.725 202.581 258.853 202.987 258.853 203.456C258.853 203.925 258.725 204.331 258.469 204.672C258.213 205.013 257.872 205.184 257.445 205.184H249.125V222.592C249.125 224.683 249.573 226.155 250.469 227.008C251.365 227.819 252.922 228.224 255.141 228.224H256.933C257.53 228.224 257.978 228.416 258.277 228.8C258.618 229.141 258.789 229.568 258.789 230.08C258.789 230.592 258.618 231.04 258.277 231.424C257.978 231.808 257.53 232 256.933 232H255.141ZM116.909 296C116.312 296 115.842 295.851 115.501 295.552C115.16 295.211 114.989 294.827 114.989 294.4V250.88C114.989 250.325 115.181 249.92 115.565 249.664C115.992 249.365 116.44 249.216 116.909 249.216H127.405C129.794 249.216 131.97 249.493 133.933 250.048C135.938 250.603 137.517 251.669 138.669 253.248C139.864 254.827 140.461 257.109 140.461 260.096C140.461 262.784 139.949 265.045 138.925 266.88C137.944 268.672 136.642 269.931 135.021 270.656C136.344 271.168 137.496 271.872 138.477 272.768C139.458 273.664 140.226 274.816 140.781 276.224C141.336 277.632 141.613 279.445 141.613 281.664V282.816C141.613 286.059 141.058 288.64 139.949 290.56C138.84 292.48 137.325 293.867 135.405 294.72C133.485 295.573 131.352 296 129.005 296H116.909ZM119.213 292.096H128.429C131.202 292.096 133.378 291.349 134.957 289.856C136.578 288.32 137.389 285.909 137.389 282.624V281.536C137.389 278.208 136.578 275.883 134.957 274.56C133.378 273.195 131.202 272.512 128.429 272.512H119.213V292.096ZM119.213 268.8H127.533C130.52 268.8 132.717 268.181 134.125 266.944C135.533 265.707 136.237 263.573 136.237 260.544C136.237 258.539 135.853 257.003 135.085 255.936C134.317 254.869 133.272 254.144 131.949 253.76C130.626 253.333 129.069 253.12 127.277 253.12H119.213V268.8ZM161.203 296.448C158.515 296.448 156.125 295.936 154.035 294.912C151.987 293.888 150.365 292.48 149.171 290.688C148.019 288.853 147.443 286.72 147.443 284.288V277.184C147.443 275.051 147.997 273.088 149.107 271.296C150.216 269.461 151.688 268.011 153.523 266.944C155.4 265.877 157.448 265.344 159.667 265.344C161.8 265.344 163.763 265.856 165.555 266.88C167.389 267.861 168.861 269.227 169.971 270.976C171.08 272.725 171.635 274.752 171.635 277.056C171.635 278.677 171.357 279.851 170.803 280.576C170.248 281.301 169.544 281.749 168.691 281.92C167.88 282.048 167.005 282.112 166.067 282.112H151.603V284.48C151.603 287.04 152.52 289.067 154.355 290.56C156.189 292.053 158.515 292.8 161.331 292.8C163.037 292.8 164.36 292.587 165.299 292.16C166.237 291.733 166.963 291.307 167.475 290.88C168.029 290.453 168.541 290.24 169.011 290.24C169.352 290.24 169.651 290.368 169.907 290.624C170.205 290.837 170.419 291.093 170.547 291.392C170.717 291.691 170.803 291.968 170.803 292.224C170.803 292.693 170.419 293.269 169.651 293.952C168.883 294.635 167.773 295.232 166.323 295.744C164.872 296.213 163.165 296.448 161.203 296.448ZM151.603 279.04H164.403C165.683 279.04 166.536 278.912 166.963 278.656C167.389 278.357 167.603 277.76 167.603 276.864C167.603 275.499 167.261 274.219 166.579 273.024C165.896 271.787 164.957 270.784 163.763 270.016C162.568 269.205 161.181 268.8 159.603 268.8C158.152 268.8 156.808 269.163 155.571 269.888C154.376 270.613 153.416 271.552 152.691 272.704C151.965 273.856 151.603 275.157 151.603 276.608V279.04ZM184.563 296.448C182.131 296.448 180.062 295.765 178.355 294.4C176.691 292.992 175.859 290.859 175.859 288C175.859 285.653 176.478 283.861 177.715 282.624C178.995 281.344 180.744 280.469 182.963 280C185.224 279.488 187.827 279.232 190.771 279.232H194.035V277.76C194.035 276.352 193.779 274.987 193.267 273.664C192.798 272.299 192.008 271.189 190.899 270.336C189.832 269.44 188.36 268.992 186.483 268.992C185.075 268.992 183.923 269.141 183.027 269.44C182.131 269.739 181.427 270.059 180.915 270.4C180.403 270.699 179.976 270.848 179.635 270.848C179.123 270.848 178.696 270.592 178.355 270.08C178.056 269.568 177.907 269.099 177.907 268.672C177.907 268.075 178.355 267.541 179.251 267.072C180.147 266.56 181.256 266.155 182.579 265.856C183.944 265.515 185.288 265.344 186.611 265.344C189.47 265.344 191.731 265.941 193.395 267.136C195.102 268.288 196.318 269.803 197.043 271.68C197.811 273.557 198.195 275.563 198.195 277.696V294.336C198.195 294.805 198.003 295.211 197.619 295.552C197.278 295.851 196.787 296 196.147 296C195.635 296 195.166 295.851 194.739 295.552C194.355 295.211 194.163 294.805 194.163 294.336V291.52C193.096 292.8 191.774 293.952 190.195 294.976C188.616 295.957 186.739 296.448 184.563 296.448ZM185.587 292.928C186.995 292.928 188.339 292.565 189.619 291.84C190.899 291.115 191.944 290.24 192.755 289.216C193.608 288.149 194.035 287.147 194.035 286.208V282.112H191.347C189.427 282.112 187.592 282.24 185.843 282.496C184.136 282.709 182.728 283.2 181.619 283.968C180.552 284.736 180.019 285.952 180.019 287.616C180.019 289.451 180.552 290.795 181.619 291.648C182.728 292.501 184.051 292.928 185.587 292.928ZM217.298 296.448C214.482 296.448 212.156 295.915 210.322 294.848C208.487 293.781 207.122 292.331 206.226 290.496C205.33 288.661 204.882 286.592 204.882 284.288V277.504C204.882 275.2 205.308 273.131 206.161 271.296C207.058 269.461 208.423 268.011 210.258 266.944C212.135 265.877 214.482 265.344 217.298 265.344C219.09 265.344 220.647 265.579 221.97 266.048C223.335 266.475 224.38 267.008 225.106 267.648C225.874 268.288 226.258 268.907 226.258 269.504C226.258 269.803 226.172 270.123 226.002 270.464C225.874 270.763 225.66 271.019 225.362 271.232C225.106 271.445 224.807 271.552 224.466 271.552C224.082 271.552 223.634 271.36 223.122 270.976C222.652 270.549 221.991 270.144 221.138 269.76C220.284 269.376 219.068 269.184 217.49 269.184C214.716 269.184 212.604 269.931 211.154 271.424C209.746 272.875 209.042 274.901 209.042 277.504V284.288C209.042 286.891 209.746 288.939 211.154 290.432C212.604 291.883 214.738 292.608 217.554 292.608C219.175 292.608 220.434 292.416 221.33 292.032C222.226 291.605 222.908 291.2 223.378 290.816C223.89 290.389 224.359 290.176 224.786 290.176C225.17 290.176 225.49 290.283 225.746 290.496C226.044 290.709 226.258 290.965 226.386 291.264C226.556 291.563 226.642 291.883 226.642 292.224C226.642 292.779 226.258 293.397 225.49 294.08C224.722 294.72 223.634 295.275 222.226 295.744C220.86 296.213 219.218 296.448 217.298 296.448ZM234.393 296C233.838 296 233.347 295.829 232.921 295.488C232.537 295.147 232.345 294.763 232.345 294.336V248.768C232.345 248.256 232.537 247.872 232.921 247.616C233.347 247.317 233.838 247.168 234.393 247.168C234.99 247.168 235.481 247.317 235.865 247.616C236.291 247.872 236.505 248.256 236.505 248.768V270.208C237.23 268.971 238.297 267.861 239.705 266.88C241.113 265.856 242.862 265.344 244.953 265.344C247.001 265.344 248.878 265.899 250.585 267.008C252.334 268.075 253.721 269.525 254.745 271.36C255.769 273.152 256.281 275.157 256.281 277.376V294.336C256.281 294.891 256.067 295.317 255.641 295.616C255.214 295.872 254.723 296 254.169 296C253.699 296 253.23 295.872 252.761 295.616C252.334 295.317 252.121 294.891 252.121 294.336V277.376C252.121 275.968 251.758 274.645 251.033 273.408C250.307 272.171 249.347 271.168 248.153 270.4C246.958 269.589 245.635 269.184 244.185 269.184C242.905 269.184 241.667 269.525 240.473 270.208C239.321 270.848 238.361 271.765 237.593 272.96C236.867 274.155 236.505 275.627 236.505 277.376V294.336C236.505 294.763 236.291 295.147 235.865 295.488C235.481 295.829 234.99 296 234.393 296Z" fill="#01066E"/>
<path d="M364.807 290.768C363.698 290.768 362.631 290.512 361.607 290C360.668 289.488 360.071 288.72 359.815 287.696L332.935 200.912C332.85 200.656 332.807 200.357 332.807 200.016C332.807 199.333 333.063 198.736 333.575 198.224C334.087 197.627 334.727 197.2 335.495 196.944C336.263 196.603 337.031 196.432 337.799 196.432C338.567 196.432 339.25 196.603 339.847 196.944C340.444 197.285 340.871 197.84 341.127 198.608L364.807 277.2L388.359 198.608C388.53 197.84 388.914 197.285 389.511 196.944C390.108 196.603 390.791 196.432 391.559 196.432C392.327 196.432 393.095 196.603 393.863 196.944C394.631 197.285 395.271 197.712 395.783 198.224C396.38 198.736 396.679 199.376 396.679 200.144C396.679 200.229 396.636 200.357 396.551 200.528C396.551 200.613 396.508 200.741 396.423 200.912L369.927 287.696C369.586 288.72 368.903 289.488 367.879 290C366.94 290.512 365.916 290.768 364.807 290.768Z" fill="#01066E"/>
<path d="M413.077 290C411.968 290 410.986 289.744 410.133 289.232C409.28 288.635 408.853 287.781 408.853 286.672V199.632C408.853 198.523 409.28 197.712 410.133 197.2C410.986 196.688 411.968 196.432 413.077 196.432C414.101 196.432 415.04 196.688 415.893 197.2C416.832 197.712 417.301 198.523 417.301 199.632V286.672C417.301 287.781 416.832 288.635 415.893 289.232C415.04 289.744 414.101 290 413.077 290Z" fill="#01066E"/>
<path d="M485.624 290.256C484.685 290.256 483.832 289.787 483.064 288.848C482.296 287.824 481.656 286.8 481.144 285.776L461.432 247.376H445.176V286.672C445.176 287.781 444.707 288.635 443.768 289.232C442.915 289.744 441.976 290 440.952 290C439.843 290 438.861 289.744 438.008 289.232C437.155 288.635 436.728 287.781 436.728 286.672V199.632C436.728 198.779 437.027 198.053 437.624 197.456C438.221 196.859 438.989 196.517 439.928 196.432H462.584C467.619 196.432 472.227 197.2 476.408 198.736C480.589 200.272 483.917 202.875 486.392 206.544C488.952 210.213 490.232 215.248 490.232 221.648C490.232 226.939 489.336 231.291 487.544 234.704C485.837 238.117 483.448 240.763 480.376 242.64C477.389 244.432 474.019 245.669 470.264 246.352L489.976 284.24C490.232 284.496 490.36 284.795 490.36 285.136C490.445 285.392 490.488 285.648 490.488 285.904C490.488 286.587 490.232 287.269 489.72 287.952C489.293 288.635 488.696 289.189 487.928 289.616C487.16 290.043 486.392 290.256 485.624 290.256ZM445.176 240.08H462.584C468.301 240.08 472.909 238.715 476.408 235.984C479.992 233.168 481.784 228.56 481.784 222.16C481.784 215.675 479.992 211.067 476.408 208.336C472.909 205.605 468.301 204.24 462.584 204.24H445.176V240.08Z" fill="#01066E"/>
<path d="M577.452 290C576.343 290 575.361 289.744 574.508 289.232C573.655 288.635 573.228 287.781 573.228 286.672V199.632C573.228 198.437 573.655 197.627 574.508 197.2C575.361 196.688 576.343 196.432 577.452 196.432C578.476 196.432 579.372 196.731 580.14 197.328C580.908 197.84 581.633 198.565 582.316 199.504C582.999 200.357 583.596 201.339 584.108 202.448L618.668 270.416V199.632C618.668 198.523 619.095 197.712 619.948 197.2C620.801 196.688 621.783 196.432 622.892 196.432C623.916 196.432 624.855 196.688 625.708 197.2C626.647 197.712 627.116 198.523 627.116 199.632V286.672C627.116 287.781 626.647 288.635 625.708 289.232C624.855 289.744 623.916 290 622.892 290C621.697 290 620.588 289.531 619.564 288.592C618.625 287.568 617.857 286.416 617.26 285.136L581.676 215.888V286.672C581.676 287.781 581.207 288.635 580.268 289.232C579.415 289.744 578.476 290 577.452 290Z" fill="#01066E"/>
<path d="M650.443 290C649.248 290 648.31 289.701 647.627 289.104C646.944 288.421 646.603 287.653 646.603 286.8V199.76C646.603 198.651 646.987 197.84 647.755 197.328C648.608 196.731 649.504 196.432 650.443 196.432H671.435C676.214 196.432 680.566 196.987 684.491 198.096C688.502 199.205 691.659 201.339 693.963 204.496C696.352 207.653 697.547 212.219 697.547 218.192C697.547 223.568 696.523 228.091 694.475 231.76C692.512 235.344 689.91 237.861 686.667 239.312C689.312 240.336 691.616 241.744 693.579 243.536C695.542 245.328 697.078 247.632 698.187 250.448C699.296 253.264 699.851 256.891 699.851 261.328V263.632C699.851 270.117 698.742 275.28 696.523 279.12C694.304 282.96 691.275 285.733 687.435 287.44C683.595 289.147 679.328 290 674.635 290H650.443ZM655.051 282.192H673.483C679.03 282.192 683.382 280.699 686.539 277.712C689.782 274.64 691.403 269.819 691.403 263.248V261.072C691.403 254.416 689.782 249.765 686.539 247.12C683.382 244.389 679.03 243.024 673.483 243.024H655.051V282.192ZM655.051 235.6H671.691C677.664 235.6 682.059 234.363 684.875 231.888C687.691 229.413 689.099 225.147 689.099 219.088C689.099 215.077 688.331 212.005 686.795 209.872C685.259 207.739 683.168 206.288 680.523 205.52C677.878 204.667 674.763 204.24 671.179 204.24H655.051V235.6Z" fill="#01066E"/>
<path fill-rule="evenodd" clip-rule="evenodd" d="M710.998 289.616C711.766 289.872 712.491 290 713.174 290C714.027 290 714.753 289.829 715.35 289.488C715.947 289.147 716.374 288.592 716.63 287.824L722.518 268.112L724.566 260.816L740.182 209.232L755.67 260.816L757.846 268.112L763.734 287.824C763.99 288.592 764.417 289.147 765.014 289.488C765.611 289.829 766.251 290 766.934 290C767.787 290 768.598 289.829 769.366 289.488C770.134 289.147 770.774 288.72 771.286 288.208C771.798 287.611 772.054 286.971 772.054 286.288C772.054 286.032 772.011 285.776 771.926 285.52L745.302 198.736C745.046 197.712 744.406 196.944 743.382 196.432C742.443 195.92 741.377 195.664 740.182 195.664C739.073 195.664 738.049 195.92 737.11 196.432C736.171 196.859 735.531 197.627 735.19 198.736L708.438 285.52C708.353 285.776 708.31 286.075 708.31 286.416C708.31 287.099 708.566 287.739 709.078 288.336C709.59 288.848 710.23 289.275 710.998 289.616Z" fill="#01066E"/>
<path d="M809.953 290.768C805.004 290.768 800.524 289.872 796.513 288.08C792.502 286.288 789.302 283.387 786.913 279.376C784.524 275.365 783.329 270.032 783.329 263.376V223.824C783.329 217.168 784.524 211.835 786.913 207.824C789.302 203.813 792.46 200.912 796.385 199.12C800.396 197.328 804.876 196.432 809.825 196.432C815.286 196.432 820.022 197.413 824.033 199.376C828.044 201.253 831.158 203.856 833.377 207.184C835.596 210.512 836.705 214.352 836.705 218.704C836.705 220.24 836.321 221.349 835.553 222.032C834.785 222.629 833.761 222.928 832.481 222.928C831.286 222.928 830.262 222.672 829.409 222.16C828.641 221.648 828.214 220.837 828.129 219.728C827.788 216.485 826.892 213.712 825.441 211.408C823.99 209.104 821.985 207.355 819.425 206.16C816.865 204.88 813.708 204.24 809.953 204.24C804.236 204.24 799.798 205.861 796.641 209.104C793.484 212.261 791.905 217.168 791.905 223.824V263.376C791.905 270.032 793.484 274.981 796.641 278.224C799.798 281.381 804.236 282.96 809.953 282.96C815.67 282.96 820.108 281.381 823.265 278.224C826.508 274.981 828.129 270.032 828.129 263.376V248.144H811.105C810.081 248.144 809.27 247.803 808.673 247.12C808.161 246.352 807.905 245.499 807.905 244.56C807.905 243.621 808.161 242.768 808.673 242C809.27 241.232 810.081 240.848 811.105 240.848H833.505C834.529 240.848 835.297 241.189 835.809 241.872C836.406 242.555 836.705 243.365 836.705 244.304V263.376C836.705 270.032 835.51 275.365 833.121 279.376C830.732 283.387 827.532 286.288 823.521 288.08C819.51 289.872 814.988 290.768 809.953 290.768Z" fill="#01066E"/>
<path d="M546.721 268.112L544.545 260.816L529.057 209.232L513.441 260.816L511.393 268.112L505.505 287.824C505.249 288.592 504.822 289.147 504.225 289.488C503.628 289.829 502.902 290 502.049 290C501.366 290 500.641 289.872 499.873 289.616C499.105 289.275 498.465 288.848 497.953 288.336C497.441 287.739 497.185 287.099 497.185 286.416C497.185 286.075 497.228 285.776 497.313 285.52L524.065 198.736C524.406 197.627 525.046 196.859 525.985 196.432C526.924 195.92 527.948 195.664 529.057 195.664C530.252 195.664 531.318 195.92 532.257 196.432C533.281 196.944 533.921 197.712 534.177 198.736L560.801 285.52C560.886 285.776 560.929 286.032 560.929 286.288C560.929 286.971 560.673 287.611 560.161 288.208C559.649 288.72 559.009 289.147 558.241 289.488C557.473 289.829 556.662 290 555.809 290C555.126 290 554.486 289.829 553.889 289.488C553.292 289.147 552.865 288.592 552.609 287.824L546.721 268.112Z" fill="#01066E"/>
<line x1="297.5" y1="134.5" x2="297.5" y2="343.5" stroke="#01066E" stroke-width="5" stroke-linecap="round"/>
<path d="M774.386 109.118C774.386 109.118 785.678 126.789 820.898 122.934C820.898 122.934 850.434 154.073 880.365 139.975C880.365 139.975 902.214 169.3 946.974 157.169C947.344 157.755 963.485 182.991 1006.64 173.136C1006.64 173.136 1027.91 203.205 1065.71 184.104L938.261 61.4717L937.87 61.0835L937.522 61.1849L936.377 61.5165L774.386 109.118Z" fill="#01066E"/>
<path d="M879.369 138.791C865.141 145.323 850.956 141.311 840.108 135.439C834.656 132.488 830.112 129.099 826.928 126.444C825.429 125.193 824.236 124.107 823.396 123.313L932.8 65.136L879.369 138.791ZM1004.23 172.121C984.108 176.277 970.295 172.56 961.45 167.753C953.324 163.336 949.29 157.943 948.402 156.654L939.911 67.054L1004.23 172.121Z" fill="white" stroke="#01066E" stroke-width="3"/>
<path d="M926.838 160.11C926.838 160.11 910.563 250.538 877.37 311.232L867.619 303.561C867.619 303.561 905.577 223.761 919.042 159.765L926.838 160.11Z" fill="#01066E"/>
</svg>
