<svg width="24" height="24" viewBox="0 0 24 24" fill="none" xmlns="http://www.w3.org/2000/svg">
<path d="M3.70037 12.3481C5.35319 13.6109 6.43319 15.4815 6.70037 17.5442M2.76588 13.259L3.11209 13.51C4.40297 14.446 5.23483 15.8868 5.39998 17.4727L5.4949 18.3843C5.57094 19.1145 6.22452 19.6448 6.95472 19.5688C7.033 19.5606 7.1104 19.5455 7.18601 19.5237C8.0799 19.2654 8.67777 18.425 8.62862 17.4959L8.46566 14.4152C8.38478 12.8861 7.57499 11.4888 6.28853 10.6584L5.98593 10.4631C4.95019 9.79457 3.59829 9.88594 2.66194 10.6878C1.97456 11.2764 1.8945 12.3108 2.48313 12.9982C2.56682 13.0959 2.66172 13.1834 2.76588 13.259Z" stroke="#262626" stroke-linecap="round"/>
<path d="M13.8431 4.80326C12.5734 6.45079 12.0144 8.53719 12.2902 10.5988M14.9815 5.44125L14.7121 5.77334C13.7074 7.01153 13.2768 8.61857 13.5278 10.1932L13.672 11.0983C13.7876 11.8233 13.2935 12.5047 12.5685 12.6202C12.4908 12.6326 12.4121 12.6381 12.3334 12.6365C11.4032 12.6184 10.6081 11.9614 10.4151 11.0512L9.7752 8.03328C9.45758 6.53541 9.87812 4.9761 10.9058 3.84105L11.1476 3.57406C11.975 2.66024 13.3045 2.3986 14.4164 2.93076C15.2328 3.32143 15.5778 4.29987 15.1871 5.11618C15.1316 5.23224 15.0626 5.34135 14.9815 5.44125Z" stroke="#262626" stroke-linecap="round"/>
<path d="M14.2397 16.8501C16.163 16.0581 17.6904 14.5307 18.4823 12.6074M13.5728 15.7283L13.9722 15.5755C15.4613 15.0055 16.6378 13.8291 17.2078 12.3399L17.5354 11.484C17.7978 10.7983 18.5664 10.4553 19.252 10.7177C19.3255 10.7458 19.3964 10.7804 19.4638 10.8211C20.2604 11.3019 20.6203 12.2684 20.3324 13.1532L19.3776 16.0867C18.9038 17.5427 17.7599 18.6829 16.3024 19.152L15.9595 19.2623C14.786 19.64 13.5039 19.2019 12.8069 18.185C12.2953 17.4385 12.4857 16.4187 13.2322 15.907C13.3383 15.8343 13.4527 15.7743 13.5728 15.7283Z" stroke="#262626" stroke-linecap="round"/>
</svg>
