<svg width="24" height="24" viewBox="0 0 24 24" fill="none" xmlns="http://www.w3.org/2000/svg">
<g clip-path="url(#clip0_203_7986)">
<path d="M16.5255 10.6656C16.6161 10.7572 16.6851 10.8641 16.7311 10.9789L18.0193 10.9729C18.3921 10.9709 18.7289 10.75 18.8793 10.4089C19.075 9.96528 18.9023 9.45235 18.494 9.21266L18.4107 9.16998L19.359 8.84991C19.5962 8.7697 19.7919 8.59866 19.9032 8.37432C20.1352 7.90651 19.944 7.3392 19.4762 7.1072L19.1044 6.92209L19.371 6.65631C19.9215 6.10586 19.9215 5.21342 19.371 4.66297C18.8206 4.11253 17.9282 4.11253 17.3777 4.66297L17.0997 4.94007L16.8928 4.52377C16.7815 4.29943 16.5858 4.12839 16.3486 4.04818C15.8539 3.88092 15.3174 4.14634 15.1501 4.64101L14.8568 5.50575L14.8495 5.48458C14.7142 5.11665 14.3647 4.87139 13.9727 4.86927C13.4538 4.86647 13.0308 5.28489 13.028 5.80382L13.0207 7.22934C13.1085 7.27324 13.1904 7.33129 13.2628 7.40288M16.5255 10.6656C16.1583 10.2944 15.5596 10.2912 15.1884 10.6584L5.84167 19.9049C5.61176 20.1323 5.28157 20.2265 4.96629 20.1545M16.5255 10.6656C16.8006 10.9437 16.8759 11.3623 16.7156 11.7185L17.5342 11.3139C18.0022 11.0824 18.5694 11.2741 18.8009 11.7422C18.9119 11.9667 18.9293 12.226 18.8494 12.4633L18.6814 12.9611L19.5916 12.9612C20.3255 12.9612 20.9205 13.5561 20.9205 14.2901C20.9205 15.024 20.3255 15.6189 19.5916 15.6189L18.6815 15.6181L18.8494 16.1168C19.0161 16.6117 18.7501 17.148 18.2553 17.3147C18.018 17.3947 17.7587 17.3772 17.5342 17.2662L16.6385 16.8231L16.6661 16.9111C16.7852 17.3692 16.5447 17.8541 16.0926 18.0294C15.7451 18.1643 15.3507 18.0823 15.0857 17.8201L12.8607 15.6189L7.47406 20.9478C6.73727 21.6766 5.55107 21.6766 4.81428 20.9478L3.72623 19.8714L4.96629 20.1545M4.96629 20.1545L3.99598 19.9325L3.7739 18.9621M3.7739 18.9621C3.70192 18.6468 3.79608 18.3166 4.02352 18.0867M3.7739 18.9621L4.057 20.2021L2.98062 19.1141C2.25174 18.3773 2.25174 17.1911 2.98062 16.4543L8.30944 11.0677L6.10826 8.84267C5.84608 8.57764 5.7641 8.1833 5.89894 7.83574C6.07433 7.38369 6.55916 7.14314 7.0173 7.2623L7.10531 7.28993L6.66218 6.39418C6.55116 6.16973 6.53371 5.91039 6.61367 5.67309C6.78041 5.17825 7.31672 4.91226 7.81156 5.079L8.31031 5.24693L8.30944 4.33681C8.30944 3.60289 8.9044 3.00793 9.63832 3.00793C10.3722 3.00793 10.9672 3.60289 10.9672 4.33681L10.9673 5.24693L11.4651 5.079C11.7024 4.99904 11.9617 5.01649 12.1862 5.12751C12.6542 5.35902 12.846 5.92613 12.6145 6.39418L12.2099 7.21278C12.5661 7.05252 12.9846 7.12773 13.2628 7.40288M4.02352 18.0867L10.5282 11.5109L13.0105 9.02926L13.0102 9.00205L13.27 8.73998M4.02352 18.0867L13.27 8.73998M13.27 8.73998C13.6372 8.36875 13.634 7.77012 13.2628 7.40288M16.7994 7.20058L15.8496 8.15044M9.63832 7.03782L9.63832 8.38112M7.29551 12.7519L11.2822 16.7385M16.8906 14.2901L15.5473 14.2901" stroke="#262626" stroke-linecap="round"/>
</g>
<defs>
<clipPath id="clip0_203_7986">
<rect width="24" height="24" fill="white"/>
</clipPath>
</defs>
</svg>
