<svg width="24" height="24" viewBox="0 0 24 24" fill="none" xmlns="http://www.w3.org/2000/svg">
<path fill-rule="evenodd" clip-rule="evenodd" d="M11.8015 8.76093C13.765 7.32269 16.5117 7.51172 18.2596 9.2596L18.5 9.5C18.8787 9.87865 19.0743 10.403 19.0361 10.9372C18.9635 11.9543 18.08 12.72 17.0628 12.6473L12.5981 12.3284C12.5819 12.3273 12.5659 12.3259 12.5498 12.3244C12.5899 12.53 12.6259 12.738 12.6592 12.9465L12.4916 13.735C12.1696 15.263 12.2707 16.8498 12.7839 18.3246L12.86 18.5432C12.8902 18.6299 12.9258 18.7131 12.9664 18.7927C12.8326 19.5784 12.2756 20.2415 11.5 20.5C10.7329 20.7557 9.90366 20.3411 9.64794 19.574L9.61652 19.4661L9.43724 18.749C9.18005 17.7202 8.76735 16.7376 8.21405 15.8347L8 15.5C7.3417 14.5125 6.91289 13.3902 6.74505 12.2153L6.38079 9.66552C6.29778 9.08441 6.3664 8.51021 6.56068 7.98789L11.3868 8.59125C11.5142 8.60717 11.6416 8.6103 11.7673 8.60122L11.8015 8.76093ZM11.5 9C10.7055 9.68099 10.6135 10.8771 11.2945 11.6716C11.6239 12.0559 12.0933 12.2924 12.5981 12.3284L17.0628 12.6473C18.08 12.72 18.9635 11.9543 19.0361 10.9372C19.0743 10.403 18.8787 9.87865 18.5 9.5L18.2596 9.2596C16.4203 7.42029 13.475 7.30718 11.5 9ZM12.7766 12.383L16.732 12.6972C16.7149 12.8377 16.6832 12.9785 16.6362 13.1175L16.5549 13.3796C16.2322 14.5214 16.2911 15.7403 16.727 16.8493L16.7977 17.0454C17.1141 18.0675 16.6267 19.1799 15.6387 19.6318L15.5284 19.6823C15.4724 19.7079 15.4153 19.7309 15.3571 19.7511C14.334 20.1071 13.216 19.5663 12.86 18.5432L12.7839 18.3246C12.2707 16.8498 12.1696 15.263 12.4916 13.735L12.7766 12.383ZM12.5355 4.82843L13 5.29289C13.758 6.05087 13.758 7.27978 13 8.03776C12.9505 8.08727 12.8986 8.13378 12.8447 8.1772C12.6016 8.27536 12.3649 8.39537 12.1368 8.53558C11.8964 8.60376 11.6415 8.62309 11.3868 8.59125L5.96139 7.91307C4.85446 7.7747 4.06929 6.76519 4.20765 5.65826C4.27562 5.1145 4.56161 4.62169 5 4.29289C7.29519 2.57151 10.5069 2.79975 12.5355 4.82843Z" stroke="#262626" stroke-linecap="round"/>
</svg>
