<?xml version='1.0' encoding='iso-8859-1'?>
<!DOCTYPE svg PUBLIC '-//W3C//DTD SVG 1.1//EN' 'http://www.w3.org/Graphics/SVG/1.1/DTD/svg11.dtd'>
<!-- Uploaded to: SVG Repo, www.svgrepo.com, Generator: SVG Repo Mixer Tools -->
<svg fill="#262626" height="800px" width="800px" version="1.1" xmlns="http://www.w3.org/2000/svg" viewBox="0 0 420.951 420.951" xmlns:xlink="http://www.w3.org/1999/xlink" enable-background="new 0 0 420.951 420.951">
  <path d="m419.667,406.04l-48.854-86.843 12.925-12.926c3.905-3.905 3.905-10.237 0-14.143l-34.024-34.024c7.173-12.715 5.362-29.168-5.454-39.983l-208.36-208.36c-13.006-13.005-34.166-13.005-47.172,3.55271e-15l-78.958,78.959c-6.3,6.301-9.77,14.677-9.77,23.586 0,8.91 3.47,17.286 9.77,23.586l208.36,208.36c6.502,6.502 15.044,9.753 23.585,9.753 5.666,0 11.327-1.439 16.398-4.3l34.024,34.024c1.875,1.875 4.419,2.929 7.071,2.929s5.196-1.054 7.071-2.929l12.925-12.926 86.843,48.854c1.536,0.864 3.224,1.285 4.899,1.285 2.589,0 5.149-1.004 7.075-2.929 3.172-3.17 3.844-8.064 1.646-11.973zm-187.396-75.93l-208.359-208.36c-5.208-5.207-5.208-13.68-7.10543e-15-18.887l78.958-78.959c2.604-2.604 6.024-3.906 9.444-3.906s6.84,1.302 9.443,3.906l208.36,208.36c5.208,5.207 5.208,13.68 0,18.887l-78.958,78.959c-5.206,5.207-13.68,5.208-18.888,0zm66.937,32.407l-26.086-26.086 63.317-63.316 26.086,26.086-63.317,63.316zm34.682-6.398l22.237-22.237 28.595,50.832-50.832-28.595z"/>
</svg>