<svg width="24" height="24" viewBox="0 0 24 24" fill="none" xmlns="http://www.w3.org/2000/svg">
<path d="M19.103 9.23935L19.5072 9.38676C20.8013 9.85731 21.4688 11.2878 20.9983 12.5818C20.8874 12.8866 20.7182 13.1669 20.5 13.4069L20.3363 13.587C18.7878 15.2902 16.9883 16.747 15 17.9069L12.0504 19.6275C12.0193 19.6456 11.9808 19.6456 11.9496 19.6275L9.00001 17.9069C7.01167 16.747 5.21216 15.2902 3.66374 13.587L3.50001 13.4069C2.57379 12.388 2.64887 10.8112 3.66771 9.88502C3.9077 9.66685 4.18795 9.4976 4.49276 9.38676L4.8976 9.23813M8.69409 15.2488L5.49737 10.9867C4.50326 9.66119 4.77189 7.78079 6.09737 6.78667C6.35533 6.59321 6.64279 6.44259 6.94869 6.34062L7.50001 6.15685C7.881 6.02985 8.26604 5.91942 8.65405 5.82555L8.83625 5.78266C8.50983 6.38523 8.41466 7.10813 8.6143 7.80688M8.6143 7.80688L10.4533 14.2438M8.6143 7.80688C8.25811 6.56023 8.84035 5.23668 10 4.65685C11.259 4.02734 12.741 4.02734 14 4.65685C15.1597 5.23668 15.7419 6.56023 15.3857 7.80688M13.5463 14.2437L15.3857 7.80688M15.3857 7.80688C15.5852 7.10853 15.4903 6.38603 15.1643 5.78367C15.6138 5.88537 16.0596 6.01005 16.5 6.15685L17.0513 6.34062C18.6232 6.86457 19.4726 8.56353 18.9487 10.1354C18.8467 10.4413 18.6961 10.7287 18.5026 10.9867L15.3054 15.2483" stroke="#262626" stroke-linecap="round"/>
<path fill-rule="evenodd" clip-rule="evenodd" d="M16.9998 16.5938L17 18.5C17 19.3284 16.3284 20 15.5 20H8.50001C7.67158 20 7.00001 19.3284 7.00001 18.5L6.99905 16.5929C7.64152 17.0653 8.30937 17.504 9.00001 17.9068L11.9496 19.6275C11.9808 19.6456 12.0193 19.6456 12.0504 19.6275L15 17.9068C15.6902 17.5042 16.3577 17.0658 16.9998 16.5938Z" stroke="#262626" stroke-linecap="round"/>
</svg>
