<svg width="24" height="24" viewBox="0 0 24 24" fill="none" xmlns="http://www.w3.org/2000/svg">
<path d="M15 4L14.846 4.05132C13.1464 4.61786 12 6.20843 12 8V5.45941C12 4.02937 10.9906 2.79812 9.58835 2.51767L7 2V2.54059C7 3.97063 8.00938 5.20188 9.41165 5.48233L12 6M15.8415 6.7487C16.8886 6.67701 17.9129 7.07687 18.6345 7.83897C19.3109 8.55346 19.6926 9.49369 19.709 10.472L19.7063 10.6984L19.6806 11.33C19.6255 12.6793 19.4084 14.0165 19.0344 15.3129L18.8868 15.7971L18.5197 16.9398C18.0676 18.3468 16.9448 19.4364 15.5248 19.8462C14.922 20.0202 14.1005 19.9827 13.0604 19.7338L12.7713 19.6606C12.2657 19.5261 11.7338 19.5261 11.2282 19.6607C10.0505 19.9741 9.1328 20.036 8.47515 19.8462C7.05524 19.4364 5.93243 18.3468 5.48033 16.9398L5.11317 15.7971C4.64839 14.3507 4.3814 12.848 4.31944 11.33L4.29367 10.6984C4.25046 9.63968 4.63703 8.60843 5.36554 7.83897C6.08709 7.07687 7.11141 6.67701 8.15845 6.7487L8.77655 6.79102C9.66526 6.85187 10.74 7.50408 12.0007 8.74764C13.1675 7.56251 14.1639 6.91788 14.9897 6.81374L15.2234 6.79102L15.8415 6.7487Z" stroke="#262626" stroke-linecap="round"/>
</svg>
