<svg width="24" height="24" viewBox="0 0 24 24" fill="none" xmlns="http://www.w3.org/2000/svg">
<g clip-path="url(#clip0_203_7983)">
<path fill-rule="evenodd" clip-rule="evenodd" d="M6.53794 9.85546C8.23927 8.15412 10.7301 7.8865 12.1013 9.25771C12.4683 9.62469 12.7178 10.0719 12.854 10.5626C12.205 11.3774 11.47 12.1189 10.6616 12.7742C10.6633 12.0478 10.4209 11.3688 9.91908 10.867C8.88247 9.83034 7.08966 9.90064 5.69266 10.9541C5.91554 10.5665 6.19814 10.1953 6.53794 9.85546ZM17.3843 11.551L17.3271 11.5488C19.2663 11.5488 20.8383 13.4993 20.8383 15.9053C20.8383 16.1938 20.8157 16.4758 20.7728 16.7481C20.2876 15.2717 19.1091 14.2297 17.7322 14.2297C17.4643 14.2297 17.2039 14.2692 16.9546 14.3436C16.7809 14.0183 16.5582 13.7147 16.2866 13.443L16.3494 13.5097C16.6908 13.0029 16.9887 12.465 17.238 11.9016L17.3843 11.551ZM17.0705 3.81604C17.6031 3.93383 17.9902 4.39453 18.0145 4.93941L18.1159 7.21555C18.2195 9.53843 17.5561 11.7179 16.3499 13.509L16.2866 13.443C14.7078 11.8642 12.0483 11.9396 10.217 13.5668L10.374 13.5684C11.2089 13.5919 12.0027 13.8985 12.6026 14.4984C13.1126 15.0084 13.4106 15.6585 13.5029 16.3549C11.9654 17.3892 10.1328 18.0274 8.14578 18.1159C7.83585 18.1298 7.52546 18.1298 7.21553 18.1159L4.9394 18.0145C4.27428 17.9848 3.75913 17.4216 3.78878 16.7565C3.81306 16.2116 4.20018 15.7509 4.73274 15.6331C10.177 14.429 14.429 10.177 15.6331 4.73275C15.7769 4.08268 16.4204 3.67226 17.0705 3.81604ZM10.217 13.5668C12.0483 11.9396 14.7078 11.8642 16.2866 13.443C17.932 15.0885 17.7806 17.9077 15.9484 19.7399C14.4697 21.2186 12.3481 21.6025 10.7195 20.8306C11.2661 20.6149 11.788 20.2787 12.2419 19.8248C13.8123 18.2543 13.9739 15.8696 12.6026 14.4984C12.0027 13.8985 11.2089 13.5919 10.374 13.5684L10.217 13.5668Z" stroke="#262626" stroke-linecap="round"/>
</g>
<defs>
<clipPath id="clip0_203_7983">
<rect width="24" height="24" fill="white"/>
</clipPath>
</defs>
</svg>
