<svg width="24" height="24" viewBox="0 0 24 24" fill="none" xmlns="http://www.w3.org/2000/svg">
<path fill-rule="evenodd" clip-rule="evenodd" d="M12 21C16 19.6667 18 17.4412 18 14.3235V12H6V14.3235C6 17.4412 8 19.6667 12 21ZM7.5 7L10.2747 6.20722C10.704 6.08456 11 5.69218 11 5.2457V4H13L12.5575 4.88499C12.3105 5.37897 12.5107 5.97964 13.0047 6.22663C13.07 6.25926 13.1386 6.28465 13.2094 6.30235L16 7C18.1422 7.53555 19.4701 9.65674 19.045 11.7991L19 12H5L4.88285 11.5314C4.39058 9.5623 5.54843 7.55759 7.5 7Z" stroke="#262626" stroke-linecap="square"/>
</svg>
