<svg width="24" height="24" viewBox="0 0 24 24" fill="none" xmlns="http://www.w3.org/2000/svg">
<path fill-rule="evenodd" clip-rule="evenodd" d="M18.2141 14.4801C18.3605 14.3336 18.598 14.3336 18.7444 14.4801C18.8909 14.6265 18.8909 14.864 18.7444 15.0104L18.4793 15.2756C18.1257 17.0433 17.6838 18.1924 17.1534 18.7227C16.3579 19.5182 15.234 19.4549 14.5018 18.7227C13.7695 17.9905 13.7063 16.8666 14.5018 16.0711C15.0321 15.5407 16.1812 15.0988 17.9489 14.7452L18.2141 14.4801ZM5.19482 14.3302C5.29837 14.1509 5.52772 14.0894 5.70708 14.193L6.03184 14.3805C7.83087 14.2645 9.05515 14.394 9.70467 14.769C10.679 15.3315 10.9087 16.4335 10.391 17.3302C9.8732 18.227 8.80395 18.579 7.82967 18.0165C7.18015 17.6415 6.45587 16.646 5.65684 15.03L5.33208 14.8425C5.15272 14.739 5.09126 14.5096 5.19482 14.3302ZM12.7929 6.7071C13 6.7071 13.1679 6.875 13.1679 7.0821V7.4571C14.1679 8.9571 14.6679 10.0821 14.6679 10.8321C14.6679 11.9571 13.8284 12.7071 12.7929 12.7071C11.7574 12.7071 10.9179 11.9571 10.9179 10.8321C10.9179 10.0821 11.4179 8.9571 12.4179 7.4571V7.0821C12.4179 6.875 12.5858 6.7071 12.7929 6.7071ZM17.8466 5.7209C18.8469 5.45288 19.8519 5.96005 20.143 7.04672C20.3372 7.77117 20.1454 8.98724 19.5677 10.6949L19.6647 11.0572C19.7183 11.2572 19.5996 11.4628 19.3996 11.5165C19.1995 11.5701 18.9939 11.4513 18.9403 11.2513L18.8432 10.8891C17.4891 9.69899 16.7149 8.74174 16.5208 8.01729C16.2296 6.93063 16.8464 5.98891 17.8466 5.7209ZM7.49438 3.79712L7.56935 3.80933C7.7694 3.86293 7.88812 4.06856 7.83452 4.26861L7.73746 4.63083C8.31516 6.33854 8.50695 7.55461 8.31283 8.27906C8.02166 9.36572 7.01668 9.8729 6.01644 9.60488C5.01619 9.33687 4.39944 8.39515 4.69061 7.30848C4.88472 6.58404 5.65886 5.62678 7.01301 4.43671L7.11007 4.07449C7.16367 3.87444 7.3693 3.75572 7.56935 3.80933L7.49438 3.79712Z" stroke="#262626" stroke-linecap="round"/>
</svg>
