<svg width="24" height="24" viewBox="0 0 24 24" fill="none" xmlns="http://www.w3.org/2000/svg">
<g clip-path="url(#clip0_203_8007)">
<path d="M21 3L20.6259 3.00512C17.1395 3.10057 13.816 4.52716 11.3431 7M21 3L19.6885 2.79823C17.3134 2.43283 14.8922 2.49317 12.5383 2.97643L11.7442 3.13945C11.523 3.18486 11.3111 3.26741 11.1175 3.3836C10.1703 3.9519 9.86317 5.18042 10.4315 6.12758L11.1005 7.24126L11.3431 7M21 3L21.2018 4.31152C21.5672 6.68661 21.5068 9.10778 21.0236 11.4617L20.8606 12.2558C20.6384 13.3378 19.5812 14.0348 18.4992 13.8127C18.278 13.7673 18.0661 13.6847 17.8724 13.5685L16.7574 12.8981L17 12.6569M21 3L20.9949 3.37413C20.8994 6.8605 19.4728 10.184 17 12.6569M21 3C21 6.62202 19.5612 10.0957 17 12.6569M11.3431 7L7.56497 10.7782M17 12.6569L13.2218 16.435M13.2218 16.435L7.56497 10.7782M13.2218 16.435L12.3076 17.3492C11.6409 18.0159 11.6409 19.0968 12.3076 19.7635C12.9743 20.4301 14.0552 20.4301 14.7218 19.7635L14.9289 19.5563M7.56497 10.7782L6.65076 11.6924C5.98409 12.3591 4.90321 12.3591 4.23655 11.6924C3.56988 11.0257 3.56988 9.94484 4.23655 9.27817L4.44365 9.07107M11.4541 14.6673L7.71142 18.4099C7.04475 19.0766 7.04475 20.1574 7.71142 20.8241C8.37809 21.4908 9.45897 21.4908 10.1256 20.8241L10.3327 20.617M9.33274 12.5459L5.5901 16.2886C4.92343 16.9552 3.84255 16.9552 3.17589 16.2886C2.50922 15.6219 2.50922 14.541 3.17589 13.8744L3.38299 13.6673" stroke="#262626" stroke-linecap="round"/>
<path fill-rule="evenodd" clip-rule="evenodd" d="M13.1511 12.9702L13.2218 12.8995L13.1511 12.9702Z" stroke="#262626" stroke-width="1.5" stroke-linecap="round" stroke-linejoin="round"/>
<path fill-rule="evenodd" clip-rule="evenodd" d="M11.0298 10.8489L11.1005 10.7782L11.0298 10.8489Z" stroke="#262626" stroke-width="1.5" stroke-linecap="round" stroke-linejoin="round"/>
</g>
<defs>
<clipPath id="clip0_203_8007">
<rect width="24" height="24" fill="white"/>
</clipPath>
</defs>
</svg>
